<svg width="25" height="25" viewBox="0 0 25 25" fill="none" xmlns="http://www.w3.org/2000/svg">
  <path
    d="M5.18448 23.5C7.11748 23.5 8.68448 21.933 8.68448 20C8.68448 18.067 7.11748 16.5 5.18448 16.5C3.25148 16.5 1.68448 18.067 1.68448 20C1.68448 21.933 3.25148 23.5 5.18448 23.5Z"
    stroke="white" stroke-width="2" stroke-linecap="round" stroke-linejoin="round" />
  <path
    d="M20.1845 8.5C22.1175 8.5 23.6845 6.933 23.6845 5C23.6845 3.067 22.1175 1.5 20.1845 1.5C18.2515 1.5 16.6845 3.067 16.6845 5C16.6845 6.933 18.2515 8.5 20.1845 8.5Z"
    stroke="white" stroke-width="2" stroke-linecap="round" stroke-linejoin="round" />
  <path
    d="M5.18448 8.5C7.11748 8.5 8.68448 6.933 8.68448 5C8.68448 3.067 7.11748 1.5 5.18448 1.5C3.25148 1.5 1.68448 3.067 1.68448 5C1.68448 6.933 3.25148 8.5 5.18448 8.5Z"
    stroke="white" stroke-width="2" stroke-linecap="round" stroke-linejoin="round" />
  <path
    d="M5.18451 16.5V15.5C5.18285 15.1056 5.25932 14.7147 5.4095 14.35C5.55968 13.9853 5.78059 13.6539 6.0595 13.375C6.3384 13.0961 6.66978 12.8752 7.0345 12.725C7.39922 12.5748 7.79008 12.4983 8.1845 12.5H17.1845C17.5789 12.5017 17.9698 12.4252 18.3345 12.275C18.6992 12.1248 19.0306 11.9039 19.3095 11.625C19.5884 11.3461 19.8093 11.0147 19.9595 10.65C20.1097 10.2853 20.1862 9.89443 20.1845 9.5V8.5"
    stroke="white" stroke-width="2" stroke-linecap="round" stroke-linejoin="round" />
  <path d="M5.18448 8.5V16.5" stroke="white" stroke-width="2" stroke-linecap="round" stroke-linejoin="round" />
</svg>